<?xml version="1.0" encoding="utf-8"?>
<!-- Generator: Adobe Illustrator 18.1.1, SVG Export Plug-In . SVG Version: 6.00 Build 0)  -->
<!DOCTYPE svg PUBLIC "-//W3C//DTD SVG 1.1//EN" "http://www.w3.org/Graphics/SVG/1.1/DTD/svg11.dtd">
<svg version="1.1" id="Layer_1" xmlns="http://www.w3.org/2000/svg" xmlns:xlink="http://www.w3.org/1999/xlink" x="0px" y="0px"
	 viewBox="0 0 64 64" enable-background="new 0 0 64 64" xml:space="preserve">
<g>
	<g>
		<path fill-rule="evenodd" clip-rule="evenodd" d="M-114.7,33.7l-11.7,11.8l-5.3-5.3c-0.5-0.5-1.3-0.5-1.8,0
			c-0.5,0.5-0.5,1.3,0,1.8l6.2,6.2c0.5,0.5,1.3,0.5,1.8,0c0,0,0-0.1,0.1-0.1l12.5-12.6c0.5-0.5,0.5-1.3,0-1.8
			C-113.4,33.2-114.2,33.2-114.7,33.7z M-114.7,120.9l-11.7,11.8l-5.3-5.3c-0.5-0.5-1.3-0.5-1.8,0c-0.5,0.5-0.5,1.3,0,1.8l6.2,6.2
			c0.5,0.5,1.3,0.5,1.8,0c0,0,0-0.1,0.1-0.1l12.5-12.6c0.5-0.5,0.5-1.3,0-1.8C-113.4,120.4-114.2,120.4-114.7,120.9z M-32.8,33.7
			l-11.7,11.8l-5.3-5.3c-0.5-0.5-1.3-0.5-1.8,0c-0.5,0.5-0.5,1.3,0,1.8l6.2,6.2c0.5,0.5,1.3,0.5,1.8,0c0,0,0-0.1,0.1-0.1L-31,35.5
			c0.5-0.5,0.5-1.3,0-1.8C-31.5,33.2-32.3,33.2-32.8,33.7z M39.5,48.2c0.5,0.5,1.3,0.5,1.8,0c0,0,0-0.1,0.1-0.1l12.5-12.6
			c0.5-0.5,0.5-1.3,0-1.8c-0.5-0.5-1.3-0.5-1.8,0L40.3,45.5l-5.3-5.3c-0.5-0.5-1.3-0.5-1.8,0c-0.5,0.5-0.5,1.3,0,1.8L39.5,48.2z
			 M52.1,120.9l-11.7,11.8l-5.3-5.3c-0.5-0.5-1.3-0.5-1.8,0c-0.5,0.5-0.5,1.3,0,1.8l6.2,6.2c0.5,0.5,1.3,0.5,1.8,0
			c0,0,0-0.1,0.1-0.1l12.5-12.6c0.5-0.5,0.5-1.3,0-1.8C53.3,120.4,52.6,120.4,52.1,120.9z M-32.8,120.9l-11.7,11.8l-5.3-5.3
			c-0.5-0.5-1.3-0.5-1.8,0c-0.5,0.5-0.5,1.3,0,1.8l6.2,6.2c0.5,0.5,1.3,0.5,1.8,0c0,0,0-0.1,0.1-0.1l12.5-12.6
			c0.5-0.5,0.5-1.3,0-1.8C-31.5,120.4-32.3,120.4-32.8,120.9z"/>
	</g>
</g>
<path fill-rule="evenodd" clip-rule="evenodd" d="M34,45.5c-1.6,0.6-3.3,0.9-5,0.9c-8.3,0-15-6.8-15-15c0-3.8,1.4-7.2,3.7-9.8
	L34,37.9c0.1,0,0.1,0,0.2,0c0.9,0,1.7,0.3,2.3,1l4.6,4.6c3.1-3.1,5-7.4,5-12.1c0-9.5-7.7-17.2-17.2-17.2c-9.5,0-17.2,7.7-17.2,17.2
	c0,9.5,7.7,17.2,17.2,17.2c2.4,0,4.6-0.5,6.7-1.4L34,45.5z M28.9,16.3c8.3,0,15,6.7,15,15c0,3.7-1.4,7.2-3.7,9.8L19.1,20
	C21.8,17.7,25.2,16.3,28.9,16.3z"/>
</svg>
