<?xml version="1.0" encoding="utf-8"?>
<!-- Generator: Adobe Illustrator 18.1.1, SVG Export Plug-In . SVG Version: 6.00 Build 0)  -->
<!DOCTYPE svg PUBLIC "-//W3C//DTD SVG 1.1//EN" "http://www.w3.org/Graphics/SVG/1.1/DTD/svg11.dtd">
<svg version="1.1" id="Layer_1" xmlns="http://www.w3.org/2000/svg" xmlns:xlink="http://www.w3.org/1999/xlink" x="0px" y="0px"
	 viewBox="0 0 64 64" enable-background="new 0 0 64 64" xml:space="preserve">
<g>
	<g>
		<path fill-rule="evenodd" clip-rule="evenodd" d="M-30.7,33.7l-11.7,11.8l-5.3-5.3c-0.5-0.5-1.3-0.5-1.8,0c-0.5,0.5-0.5,1.3,0,1.8
			l6.2,6.2c0.5,0.5,1.3,0.5,1.8,0c0,0,0-0.1,0.1-0.1l12.5-12.6c0.5-0.5,0.5-1.3,0-1.8C-29.4,33.2-30.2,33.2-30.7,33.7z M-30.7,120.9
			l-11.7,11.8l-5.3-5.3c-0.5-0.5-1.3-0.5-1.8,0c-0.5,0.5-0.5,1.3,0,1.8l6.2,6.2c0.5,0.5,1.3,0.5,1.8,0c0,0,0-0.1,0.1-0.1l12.5-12.6
			c0.5-0.5,0.5-1.3,0-1.8C-29.4,120.4-30.2,120.4-30.7,120.9z M51.2,33.7L39.5,45.5l-5.3-5.3c-0.5-0.5-1.3-0.5-1.8,0
			c-0.5,0.5-0.5,1.3,0,1.8l6.2,6.2c0.5,0.5,1.3,0.5,1.8,0c0,0,0-0.1,0.1-0.1L53,35.5c0.5-0.5,0.5-1.3,0-1.8
			C52.5,33.2,51.7,33.2,51.2,33.7z M123.5,48.2c0.5,0.5,1.3,0.5,1.8,0c0,0,0-0.1,0.1-0.1l12.5-12.6c0.5-0.5,0.5-1.3,0-1.8
			c-0.5-0.5-1.3-0.5-1.8,0l-11.7,11.8l-5.3-5.3c-0.5-0.5-1.3-0.5-1.8,0c-0.5,0.5-0.5,1.3,0,1.8L123.5,48.2z M136.1,120.9l-11.7,11.8
			l-5.3-5.3c-0.5-0.5-1.3-0.5-1.8,0c-0.5,0.5-0.5,1.3,0,1.8l6.2,6.2c0.5,0.5,1.3,0.5,1.8,0c0,0,0-0.1,0.1-0.1l12.5-12.6
			c0.5-0.5,0.5-1.3,0-1.8C137.3,120.4,136.6,120.4,136.1,120.9z M51.2,120.9l-11.7,11.8l-5.3-5.3c-0.5-0.5-1.3-0.5-1.8,0
			c-0.5,0.5-0.5,1.3,0,1.8l6.2,6.2c0.5,0.5,1.3,0.5,1.8,0c0,0,0-0.1,0.1-0.1L53,122.7c0.5-0.5,0.5-1.3,0-1.8
			C52.5,120.4,51.7,120.4,51.2,120.9z"/>
	</g>
</g>
<path d="M46.3,13.9c-0.4-0.4-1.2-0.7-2.3-0.7c-1.3,0-2.8,0.5-4.2,1.9l-7.1,7.1c-4-0.3-14.2-0.9-14.4-0.9c0,0-0.1,0-0.2,0
	c-0.3,0-0.9,0.1-1.6,0.6c-0.8,0.7-2.4,2.2-2.4,2.2c-0.4,0.4-0.6,0.9-0.6,1.4c0,0.3,0.2,0.8,0.9,1.1c0.4,0.2,7.1,2.7,10.2,3.8
	l-4.2,4.4c-0.2,0-0.4,0-0.7,0c-1.3,0-3.3,0-4.1,0c-0.1,0-0.2,0-0.3,0c-0.2,0-0.7-0.1-2.1,1l-0.1,0.1c-0.4,0.4-0.5,0.8-0.5,1.1
	c0,0.3,0.1,0.7,0.5,1c0.2,0.2,3.2,2.1,5.7,3.6c0.6,1,3.3,5.1,3.5,5.3c0.2,0.4,0.5,0.3,1,0.3c0,0,0,0,0,0c0.4,0,0.8,0,1.2-0.4
	c1.1-1.3,1-1.7,1-2c0-0.7,0-3.7,0-4.9l4.4-4.2c0.3,0.9,0.7,2,1.2,3.2c0.5-0.5,1.2-0.8,2-0.9c-0.4-1.1-0.8-2.2-1.1-3l-1.2-3.2
	l-2.4,2.4L24,38.3l-0.6,0.6l0,0.9c0,0.7,0,1.9,0,3c0,0.7,0,1.3,0,1.7c-0.1-0.1-0.1-0.2-0.2-0.3c-0.9-1.4-2.1-3.4-2.5-4l-0.3-0.4
	L20,39.6c-1.6-0.9-3.3-2.6-4.4-2.6h0c0.3,0,0.9-0.1,1.6-0.1c0.8,0,1.8,0,2.5,0c0.3,0,0.5,0,0.7,0l0.9,0l0.6-0.6l4.2-4.4l2.4-2.4
	l-3.2-1.2c-2.4-0.9-6.9-2.6-9-3.4c0.5-0.5,1.2-1.1,1.6-1.4c0.1-0.1,0.2-0.1,0.2-0.1l0.1,0c0.2,0,3.2,0.2,6,0.4
	c3,0.2,6.4,0.4,8.4,0.5l1,0.1l0.7-0.7l7.1-7.1c1.1-1.1,2.2-1.2,2.7-1.2c0.4,0,0.6,0.1,0.7,0.1c0.2,0.4,0.4,1.9-1.2,3.4l-7.1,7.1
	l-0.7,0.7l0.1,1c0.1,2,0.3,5.6,0.5,8.7c0.1,1.3,0.2,2.5,0.2,3.5l2.3,2.3c0-0.1,0-0.2,0-0.3c0-0.2-0.6-10.4-0.9-14.3l7.1-7.1
	C47.6,17.9,47.2,14.9,46.3,13.9z"/>
</svg>
