<?xml version="1.0" encoding="utf-8"?>
<!-- Generator: Adobe Illustrator 18.1.1, SVG Export Plug-In . SVG Version: 6.00 Build 0)  -->
<!DOCTYPE svg PUBLIC "-//W3C//DTD SVG 1.1//EN" "http://www.w3.org/Graphics/SVG/1.1/DTD/svg11.dtd">
<svg version="1.1" id="Layer_1" xmlns="http://www.w3.org/2000/svg" xmlns:xlink="http://www.w3.org/1999/xlink" x="0px" y="0px"
	 viewBox="0 0 64 64" enable-background="new 0 0 64 64" xml:space="preserve">
<path d="M31.8,47.3H20.1c0-1.2,0-3.3,0-5.9c0-3,1.1-5.3,6.4-7.5c5.1,2.1,6.4,4.3,6.5,7.1c0.1,0,0.2,0,0.3,0c0.7,0,1.3,0.2,1.9,0.6
	c0-0.1,0-0.1,0-0.2c0-3.9-1.8-6.6-6-8.7c4.1-2.1,6-4.7,6-8.2v-7.2h2.2c0.6,0,1.1-0.5,1.1-1.1c0-0.6-0.5-1.1-1.1-1.1H15.8
	c-0.6,0-1.1,0.5-1.1,1.1c0,0.6,0.5,1.1,1.1,1.1H18v7.2c0,3.5,1.9,6.2,5.9,8.2c-4.2,2.1-6,4.8-6,8.7c0,2.6,0,4.7,0,5.9h-2.2
	c-0.6,0-1.1,0.5-1.1,1.1c0,0.6,0.5,1.1,1.1,1.1h18.1L31.8,47.3z M20.2,24.5v-7.2H33v7.2c0,2.1-0.7,4.7-6.4,7.1
	C20.9,29.3,20.2,26.6,20.2,24.5z"/>
<g>
	<g>
		<path fill-rule="evenodd" clip-rule="evenodd" d="M-30.7-50.3l-11.7,11.8l-5.3-5.3c-0.5-0.5-1.3-0.5-1.8,0c-0.5,0.5-0.5,1.3,0,1.8
			l6.2,6.2c0.5,0.5,1.3,0.5,1.8,0c0,0,0-0.1,0.1-0.1l12.5-12.6c0.5-0.5,0.5-1.3,0-1.8C-29.4-50.8-30.2-50.8-30.7-50.3z M-30.7,36.9
			l-11.7,11.8l-5.3-5.3c-0.5-0.5-1.3-0.5-1.8,0c-0.5,0.5-0.5,1.3,0,1.8l6.2,6.2c0.5,0.5,1.3,0.5,1.8,0c0,0,0-0.1,0.1-0.1l12.5-12.6
			c0.5-0.5,0.5-1.3,0-1.8C-29.4,36.4-30.2,36.4-30.7,36.9z M51.2-50.3L39.5-38.5l-5.3-5.3c-0.5-0.5-1.3-0.5-1.8,0
			c-0.5,0.5-0.5,1.3,0,1.8l6.2,6.2c0.5,0.5,1.3,0.5,1.8,0c0,0,0-0.1,0.1-0.1L53-48.5c0.5-0.5,0.5-1.3,0-1.8
			C52.5-50.8,51.7-50.8,51.2-50.3z M123.5-35.8c0.5,0.5,1.3,0.5,1.8,0c0,0,0-0.1,0.1-0.1l12.5-12.6c0.5-0.5,0.5-1.3,0-1.8
			c-0.5-0.5-1.3-0.5-1.8,0l-11.7,11.8l-5.3-5.3c-0.5-0.5-1.3-0.5-1.8,0c-0.5,0.5-0.5,1.3,0,1.8L123.5-35.8z M136.1,36.9l-11.7,11.8
			l-5.3-5.3c-0.5-0.5-1.3-0.5-1.8,0c-0.5,0.5-0.5,1.3,0,1.8l6.2,6.2c0.5,0.5,1.3,0.5,1.8,0c0,0,0-0.1,0.1-0.1l12.5-12.6
			c0.5-0.5,0.5-1.3,0-1.8C137.3,36.4,136.6,36.4,136.1,36.9z M51.2,36.9L39.5,48.7l-5.3-5.3c-0.5-0.5-1.3-0.5-1.8,0
			c-0.5,0.5-0.5,1.3,0,1.8l6.2,6.2c0.5,0.5,1.3,0.5,1.8,0c0,0,0-0.1,0.1-0.1L53,38.7c0.5-0.5,0.5-1.3,0-1.8
			C52.5,36.4,51.7,36.4,51.2,36.9z"/>
	</g>
</g>
</svg>
