<?xml version="1.0" encoding="utf-8"?>
<!-- Generator: Adobe Illustrator 18.1.1, SVG Export Plug-In . SVG Version: 6.00 Build 0)  -->
<!DOCTYPE svg PUBLIC "-//W3C//DTD SVG 1.1//EN" "http://www.w3.org/Graphics/SVG/1.1/DTD/svg11.dtd">
<svg version="1.1" id="Layer_1" xmlns="http://www.w3.org/2000/svg" xmlns:xlink="http://www.w3.org/1999/xlink" x="0px" y="0px"
	 viewBox="0 0 64 64" enable-background="new 0 0 64 64" xml:space="preserve">
<g>
	<g>
		<path fill-rule="evenodd" clip-rule="evenodd" d="M53.3-50.3L41.6-38.5l-5.3-5.3c-0.5-0.5-1.3-0.5-1.8,0c-0.5,0.5-0.5,1.3,0,1.8
			l6.2,6.2c0.5,0.5,1.3,0.5,1.8,0c0,0,0-0.1,0.1-0.1l12.5-12.6c0.5-0.5,0.5-1.3,0-1.8C54.6-50.8,53.8-50.8,53.3-50.3z M53.3,36.9
			L41.6,48.7l-5.3-5.3c-0.5-0.5-1.3-0.5-1.8,0c-0.5,0.5-0.5,1.3,0,1.8l6.2,6.2c0.5,0.5,1.3,0.5,1.8,0c0,0,0-0.1,0.1-0.1l12.5-12.6
			c0.5-0.5,0.5-1.3,0-1.8C54.6,36.4,53.8,36.4,53.3,36.9z M135.2-50.3l-11.7,11.8l-5.3-5.3c-0.5-0.5-1.3-0.5-1.8,0
			c-0.5,0.5-0.5,1.3,0,1.8l6.2,6.2c0.5,0.5,1.3,0.5,1.8,0c0,0,0-0.1,0.1-0.1L137-48.5c0.5-0.5,0.5-1.3,0-1.8
			C136.5-50.8,135.7-50.8,135.2-50.3z M207.5-35.8c0.5,0.5,1.3,0.5,1.8,0c0,0,0-0.1,0.1-0.1l12.5-12.6c0.5-0.5,0.5-1.3,0-1.8
			c-0.5-0.5-1.3-0.5-1.8,0l-11.7,11.8l-5.3-5.3c-0.5-0.5-1.3-0.5-1.8,0c-0.5,0.5-0.5,1.3,0,1.8L207.5-35.8z M220.1,36.9l-11.7,11.8
			l-5.3-5.3c-0.5-0.5-1.3-0.5-1.8,0c-0.5,0.5-0.5,1.3,0,1.8l6.2,6.2c0.5,0.5,1.3,0.5,1.8,0c0,0,0-0.1,0.1-0.1l12.5-12.6
			c0.5-0.5,0.5-1.3,0-1.8C221.3,36.4,220.6,36.4,220.1,36.9z M135.2,36.9l-11.7,11.8l-5.3-5.3c-0.5-0.5-1.3-0.5-1.8,0
			c-0.5,0.5-0.5,1.3,0,1.8l6.2,6.2c0.5,0.5,1.3,0.5,1.8,0c0,0,0-0.1,0.1-0.1L137,38.7c0.5-0.5,0.5-1.3,0-1.8
			C136.5,36.4,135.7,36.4,135.2,36.9z"/>
	</g>
</g>
<g>
	<path d="M30.7,47.5c0.9,0,1.7-0.6,2-1.3c-0.5-0.7-0.6-1.5-0.5-2.3c-0.4-0.4-0.9-0.6-1.5-0.6c-1.2,0-2.1,1-2.1,2.1
		C28.6,46.5,29.6,47.5,30.7,47.5z"/>
	<path d="M35,48.5H24.3c-0.6,0-1.1-0.5-1.1-1.1V19.6c0-0.6,0.5-1.1,1.1-1.1h12.8c0.6,0,1.1,0.5,1.1,1.1v22.9l2.1,2.1V19.6
		c0-1.8-1.4-3.2-3.2-3.2H24.3c-1.8,0-3.2,1.4-3.2,3.2v27.9c0,1.8,1.4,3.2,3.2,3.2h12.8c0,0,0,0,0,0L35,48.5z"/>
	<path d="M33.9,20.7c0-0.6-0.5-1.1-1.1-1.1h-4.3c-0.6,0-1.1,0.5-1.1,1.1c0,0.6,0.5,1.1,1.1,1.1h4.3C33.5,21.7,33.9,21.3,33.9,20.7z"
		/>
</g>
</svg>
