<?xml version="1.0" encoding="utf-8"?>
<!-- Generator: Adobe Illustrator 18.1.1, SVG Export Plug-In . SVG Version: 6.00 Build 0)  -->
<!DOCTYPE svg PUBLIC "-//W3C//DTD SVG 1.1//EN" "http://www.w3.org/Graphics/SVG/1.1/DTD/svg11.dtd">
<svg version="1.1" id="Layer_1" xmlns="http://www.w3.org/2000/svg" xmlns:xlink="http://www.w3.org/1999/xlink" x="0px" y="0px"
	 viewBox="0 0 64 64" enable-background="new 0 0 64 64" xml:space="preserve">
<path fill-rule="evenodd" clip-rule="evenodd" d="M35.1,45.4c-1,0.6-2,1-3.1,1.3v-7c2-0.8,2.8-1.8,3.5-2.8h7
	c-0.5,1.4-1.3,2.8-2.4,4.2l1.6,1.6c2.2-2.9,3.6-6.5,3.6-10.4c0-9.5-7.7-17.2-17.2-17.2c-9.5,0-17.2,7.7-17.2,17.2
	c0,9.5,7.7,17.2,17.2,17.2c3.2,0,6.2-0.9,8.7-2.4L35.1,45.4z M28.1,38.8c-3.5,0-6.4-2.9-6.4-6.4c0-3.5,2.9-6.4,6.4-6.4
	s6.4,2.9,6.4,6.4C34.5,35.9,31.7,38.8,28.1,38.8z M43.1,32.5c0,0.7-0.1,1.5-0.2,2.5h-6.6c0.2-1,0.3-1.8,0.3-2.5
	c0-0.7-0.1-1.5-0.3-2.5H43C43.1,31,43.1,31.8,43.1,32.5z M32,18c5,1.4,9,5,10.5,10h-7c-0.8-1-1.5-2.3-3.5-3V18z M26,17.5
	c1-0.1,1.3-0.2,2-0.2s2,0.1,2,0.2v6.5c0-0.2-1.3-0.3-2-0.3s-1,0.1-2,0.3V17.5z M24,18v7c-1,0.8-2.5,2-3.3,3h-7
	C15.2,23,19,19.4,24,18z M13.1,32.5c0-0.7,0.1-1.5,0.2-2.5h6.6c-0.2,1-0.3,1.8-0.3,2.5c0,0.7,0.1,1.5,0.3,2.5h-6.6
	C13.2,34,13.1,33.2,13.1,32.5z M24,46.7c-5-1.4-8.8-5.7-10.3-9.7h7c0.8,1,2.3,2,3.3,2.8V46.7z M30,47.2c0,0.1-1.3,0.2-2,0.2
	s-1-0.1-2-0.2v-6.5c1,0.2,1.3,0.3,2,0.3s2-0.1,2-0.3V47.2z"/>
<g>
	<g>
		<path fill-rule="evenodd" clip-rule="evenodd" d="M53.3,33.7L41.6,45.5l-5.3-5.3c-0.5-0.5-1.3-0.5-1.8,0c-0.5,0.5-0.5,1.3,0,1.8
			l6.2,6.2c0.5,0.5,1.3,0.5,1.8,0c0,0,0-0.1,0.1-0.1l12.5-12.6c0.5-0.5,0.5-1.3,0-1.8C54.6,33.2,53.8,33.2,53.3,33.7z M53.3,120.9
			l-11.7,11.8l-5.3-5.3c-0.5-0.5-1.3-0.5-1.8,0c-0.5,0.5-0.5,1.3,0,1.8l6.2,6.2c0.5,0.5,1.3,0.5,1.8,0c0,0,0-0.1,0.1-0.1l12.5-12.6
			c0.5-0.5,0.5-1.3,0-1.8C54.6,120.4,53.8,120.4,53.3,120.9z M135.2,33.7l-11.7,11.8l-5.3-5.3c-0.5-0.5-1.3-0.5-1.8,0
			c-0.5,0.5-0.5,1.3,0,1.8l6.2,6.2c0.5,0.5,1.3,0.5,1.8,0c0,0,0-0.1,0.1-0.1L137,35.5c0.5-0.5,0.5-1.3,0-1.8
			C136.5,33.2,135.7,33.2,135.2,33.7z M207.5,48.2c0.5,0.5,1.3,0.5,1.8,0c0,0,0-0.1,0.1-0.1l12.5-12.6c0.5-0.5,0.5-1.3,0-1.8
			c-0.5-0.5-1.3-0.5-1.8,0l-11.7,11.8l-5.3-5.3c-0.5-0.5-1.3-0.5-1.8,0c-0.5,0.5-0.5,1.3,0,1.8L207.5,48.2z M220.1,120.9l-11.7,11.8
			l-5.3-5.3c-0.5-0.5-1.3-0.5-1.8,0c-0.5,0.5-0.5,1.3,0,1.8l6.2,6.2c0.5,0.5,1.3,0.5,1.8,0c0,0,0-0.1,0.1-0.1l12.5-12.6
			c0.5-0.5,0.5-1.3,0-1.8C221.3,120.4,220.6,120.4,220.1,120.9z M135.2,120.9l-11.7,11.8l-5.3-5.3c-0.5-0.5-1.3-0.5-1.8,0
			c-0.5,0.5-0.5,1.3,0,1.8l6.2,6.2c0.5,0.5,1.3,0.5,1.8,0c0,0,0-0.1,0.1-0.1l12.5-12.6c0.5-0.5,0.5-1.3,0-1.8
			C136.5,120.4,135.7,120.4,135.2,120.9z"/>
	</g>
</g>
</svg>
