<?xml version="1.0" encoding="utf-8"?>
<!-- Generator: Adobe Illustrator 18.1.1, SVG Export Plug-In . SVG Version: 6.00 Build 0)  -->
<!DOCTYPE svg PUBLIC "-//W3C//DTD SVG 1.1//EN" "http://www.w3.org/Graphics/SVG/1.1/DTD/svg11.dtd">
<svg version="1.1" id="Layer_1" xmlns="http://www.w3.org/2000/svg" xmlns:xlink="http://www.w3.org/1999/xlink" x="0px" y="0px"
	 viewBox="0 0 64 22.3" enable-background="new 0 0 64 22.3" xml:space="preserve">
<g>
	<path fill="#FFFFFF" d="M11.6,3.2C9.7,4.7,8.3,6.1,7.3,7.6c-1,1.5-1.5,2.8-1.5,4.1c0.2-0.1,0.5-0.2,0.8-0.2c0.3,0,0.6,0,0.9,0
		c1.2,0,2.2,0.5,3,1.4c0.8,0.9,1.2,2.1,1.2,3.5c0,1.7-0.6,3.1-1.7,4.2c-1.1,1.1-2.5,1.7-4.2,1.7c-1.8,0-3.2-0.7-4.2-2
		C0.5,19,0,17.2,0,15c0-2.6,0.8-5.2,2.4-7.8c1.6-2.6,3.9-5,7-7.3L11.6,3.2z M27.4,3.2c-1.8,1.4-3.3,2.9-4.3,4.3
		c-1,1.5-1.5,2.8-1.5,4.1c0.2-0.1,0.5-0.2,0.8-0.2c0.3,0,0.6,0,0.9,0c1.2,0,2.2,0.5,3,1.4c0.8,0.9,1.2,2.1,1.2,3.5
		c0,1.7-0.6,3.1-1.7,4.2c-1.1,1.1-2.5,1.7-4.2,1.7c-1.8,0-3.2-0.7-4.2-2c-1-1.3-1.5-3.1-1.5-5.3c0-2.6,0.8-5.2,2.4-7.8
		c1.6-2.6,3.9-5,7-7.3L27.4,3.2z"/>
	<path fill="#FFFFFF" d="M35.6,19c1.8-1.4,3.3-2.9,4.3-4.3c1-1.5,1.5-2.8,1.5-4.1c-0.2,0.1-0.5,0.2-0.8,0.2c-0.3,0-0.6,0-0.9,0
		c-1.2,0-2.2-0.5-3-1.4c-0.8-0.9-1.2-2.1-1.2-3.5c0-1.7,0.6-3.1,1.7-4.2C38.3,0.6,39.8,0,41.4,0c1.8,0,3.2,0.7,4.2,2
		c1,1.3,1.5,3.1,1.5,5.3c0,2.6-0.8,5.2-2.4,7.8c-1.6,2.6-3.9,5-7,7.3L35.6,19z M51.4,19c1.8-1.4,3.3-2.9,4.3-4.3
		c1-1.5,1.5-2.8,1.5-4.1c-0.2,0.1-0.5,0.2-0.8,0.2c-0.3,0-0.6,0-0.9,0c-1.2,0-2.2-0.5-3-1.4c-0.8-0.9-1.2-2.1-1.2-3.5
		c0-1.7,0.6-3.1,1.7-4.2C54.2,0.6,55.6,0,57.2,0c1.8,0,3.2,0.7,4.2,2C62.5,3.3,63,5,63,7.2c0,2.6-0.8,5.2-2.4,7.8
		c-1.6,2.6-3.9,5-7,7.3L51.4,19z"/>
</g>
</svg>
