<?xml version="1.0" encoding="utf-8"?>
<!-- Generator: Adobe Illustrator 18.1.1, SVG Export Plug-In . SVG Version: 6.00 Build 0)  -->
<!DOCTYPE svg PUBLIC "-//W3C//DTD SVG 1.1//EN" "http://www.w3.org/Graphics/SVG/1.1/DTD/svg11.dtd">
<svg version="1.1" id="Layer_1" xmlns="http://www.w3.org/2000/svg" xmlns:xlink="http://www.w3.org/1999/xlink" x="0px" y="0px"
	 viewBox="0 0 64 64" enable-background="new 0 0 64 64" xml:space="preserve">
<g>
	<g>
		<path fill-rule="evenodd" clip-rule="evenodd" d="M-114.7-50.3l-11.7,11.8l-5.3-5.3c-0.5-0.5-1.3-0.5-1.8,0
			c-0.5,0.5-0.5,1.3,0,1.8l6.2,6.2c0.5,0.5,1.3,0.5,1.8,0c0,0,0-0.1,0.1-0.1l12.5-12.6c0.5-0.5,0.5-1.3,0-1.8
			C-113.4-50.8-114.2-50.8-114.7-50.3z M-114.7,36.9l-11.7,11.8l-5.3-5.3c-0.5-0.5-1.3-0.5-1.8,0c-0.5,0.5-0.5,1.3,0,1.8l6.2,6.2
			c0.5,0.5,1.3,0.5,1.8,0c0,0,0-0.1,0.1-0.1l12.5-12.6c0.5-0.5,0.5-1.3,0-1.8C-113.4,36.4-114.2,36.4-114.7,36.9z M-32.8-50.3
			l-11.7,11.8l-5.3-5.3c-0.5-0.5-1.3-0.5-1.8,0c-0.5,0.5-0.5,1.3,0,1.8l6.2,6.2c0.5,0.5,1.3,0.5,1.8,0c0,0,0-0.1,0.1-0.1L-31-48.5
			c0.5-0.5,0.5-1.3,0-1.8C-31.5-50.8-32.3-50.8-32.8-50.3z M39.5-35.8c0.5,0.5,1.3,0.5,1.8,0c0,0,0-0.1,0.1-0.1l12.5-12.6
			c0.5-0.5,0.5-1.3,0-1.8c-0.5-0.5-1.3-0.5-1.8,0L40.3-38.5l-5.3-5.3c-0.5-0.5-1.3-0.5-1.8,0c-0.5,0.5-0.5,1.3,0,1.8L39.5-35.8z
			 M52.1,36.9L40.3,48.7l-5.3-5.3c-0.5-0.5-1.3-0.5-1.8,0c-0.5,0.5-0.5,1.3,0,1.8l6.2,6.2c0.5,0.5,1.3,0.5,1.8,0c0,0,0-0.1,0.1-0.1
			l12.5-12.6c0.5-0.5,0.5-1.3,0-1.8C53.3,36.4,52.6,36.4,52.1,36.9z M-32.8,36.9l-11.7,11.8l-5.3-5.3c-0.5-0.5-1.3-0.5-1.8,0
			c-0.5,0.5-0.5,1.3,0,1.8l6.2,6.2c0.5,0.5,1.3,0.5,1.8,0c0,0,0-0.1,0.1-0.1L-31,38.7c0.5-0.5,0.5-1.3,0-1.8
			C-31.5,36.4-32.3,36.4-32.8,36.9z"/>
	</g>
</g>
<g>
	<path d="M31.9,46.6c-0.3-0.3-0.6-0.7-0.7-1.1v3.2c0,0.6,0.5,1.1,1.1,1.1h2.8L31.9,46.6z"/>
	<path d="M43.7,32.7l-16-16.9c-0.2-0.2-0.5-0.3-0.8-0.3c-0.3,0-0.6,0.1-0.8,0.3L10,32.7c-0.4,0.4-0.4,1.1,0,1.5
		c0.4,0.4,1.1,0.4,1.5,0l1.4-1.5v16c0,0.6,0.5,1.1,1.1,1.1h7.5c0.6,0,1.1-0.5,1.1-1.1l0-10.7h8.5v5.1c0.2-0.4,0.4-0.8,0.7-1.1
		c0.4-0.4,0.9-0.7,1.4-0.8v-4.2c0-0.6-0.5-1.1-1.1-1.1H21.6c-0.6,0-1.1,0.5-1.1,1.1l0,10.7h-5.3V30.7c0-0.1,0-0.2,0-0.2l11.8-12.4
		l11.7,12.3c0,0.1-0.1,0.2-0.1,0.3v13.4l2.1,2.1V32.7l1.4,1.5c0.2,0.2,0.5,0.3,0.8,0.3c0.3,0,0.5-0.1,0.7-0.3
		C44.1,33.8,44.1,33.1,43.7,32.7z"/>
</g>
</svg>
