<?xml version="1.0" encoding="utf-8"?>
<!-- Generator: Adobe Illustrator 18.1.1, SVG Export Plug-In . SVG Version: 6.00 Build 0)  -->
<svg version="1.1" id="Layer_1" xmlns="http://www.w3.org/2000/svg" xmlns:xlink="http://www.w3.org/1999/xlink" x="0px" y="0px"
	 viewBox="0 0 181.4 181.4" enable-background="new 0 0 181.4 181.4" xml:space="preserve">
<g id="Check">
	<g>
		<path fill="#FFFFFF" d="M91,2.5C42.1,2.5,2.5,42.1,2.5,91c0,48.9,39.6,88.5,88.5,88.5c48.9,0,88.5-39.6,88.5-88.5
			C179.5,42.1,139.9,2.5,91,2.5z M91,168.6c-42.7,0-77.4-34.9-77.4-77.6c0-42.7,34.7-77.4,77.4-77.4c42.7,0,77.4,34.7,77.4,77.4
			C168.4,133.7,133.7,168.6,91,168.6z M126.3,58.6l-51.9,52.3L51,87.5c-2.2-2.2-5.7-2.2-7.8,0c-2.2,2.2-2.2,5.7,0,7.8l27.4,27.4
			c2.2,2.2,5.7,2.2,7.8,0c0.2-0.2,0.5-0.5,0.7-0.8l55.1-55.4c2.2-2.2,2.2-5.7,0-7.8C132,56.5,128.5,56.5,126.3,58.6z"/>
	</g>
</g>
</svg>
