<?xml version="1.0" encoding="utf-8"?>
<!-- Generator: Adobe Illustrator 18.1.1, SVG Export Plug-In . SVG Version: 6.00 Build 0)  -->
<svg version="1.1" id="Layer_1" xmlns="http://www.w3.org/2000/svg" xmlns:xlink="http://www.w3.org/1999/xlink" x="0px" y="0px"
	 viewBox="0 0 515.9 187.1" enable-background="new 0 0 515.9 187.1" xml:space="preserve">
<g>
	<path fill="#FFFFFF" d="M99,27.3C68.3,50.9,51.1,76.5,51.1,97.6c3.2-1.3,9.6-1.9,14.1-1.9c19.8,0,34.5,17.9,34.5,40.9
		c0,28.1-21.1,49.2-49.2,49.2c-29.4,0-47.9-23.6-47.9-60.1c0-43.5,26.8-86.9,78-125.3L99,27.3z M230.7,27.3
		c-30.7,23.6-47.9,49.2-47.9,70.3c3.2-1.3,9.6-1.9,14.1-1.9c19.8,0,34.5,17.9,34.5,40.9c0,28.1-21.1,49.2-49.2,49.2
		c-29.4,0-47.9-23.6-47.9-60.1c0-43.5,26.8-86.9,78-125.3L230.7,27.3z"/>
	<path fill="#FFFFFF" d="M286.3,158.9c30.7-23.6,47.9-49.2,47.9-70.3c-3.2,1.3-9.6,1.9-14.1,1.9c-19.8,0-34.5-17.9-34.5-40.9
		c0-28.1,21.1-49.2,49.2-49.2c29.4,0,47.9,23.6,47.9,60.1c0,43.5-26.8,86.9-78,125.3L286.3,158.9z M418,158.9
		c30.7-23.6,47.9-49.2,47.9-70.3c-3.2,1.3-9.6,1.9-14.1,1.9c-19.8,0-34.5-17.9-34.5-40.9c0-28.1,21.1-49.2,49.2-49.2
		c29.4,0,47.9,23.6,47.9,60.1c0,43.5-26.8,86.9-78,125.3L418,158.9z"/>
</g>
</svg>
